<?xml version="1.0" encoding="utf-8"?>
<!-- Generator: Adobe Illustrator 15.0.2, SVG Export Plug-In  -->
<!DOCTYPE svg PUBLIC "-//W3C//DTD SVG 1.1//EN" "http://www.w3.org/Graphics/SVG/1.1/DTD/svg11.dtd" [
	<!ENTITY ns_flows "http://ns.adobe.com/Flows/1.0/">
]>
<svg version="1.1"
	 xmlns="http://www.w3.org/2000/svg" xmlns:xlink="http://www.w3.org/1999/xlink" xmlns:a="http://ns.adobe.com/AdobeSVGViewerExtensions/3.0/"
	 x="0px" y="0px" width="1421px" height="1788px" viewBox="-155.842 -196.028 1421 1788"
	 overflow="visible" enable-background="new -155.842 -196.028 1421 1788" xml:space="preserve">
<defs>
</defs>
<path fill="#FFFFFF" d="M1109.458,906.584c-0.195,28.238-2.757,56.467-7.721,84.189c-9.884,55.482-29.425,109.084-57.428,157.807
	c-27.964,48.738-64.335,92.582-106.914,129.047c-42.547,36.505-91.27,65.641-143.411,85.634
	c-52.119,20.048-107.603,30.892-163.383,32.18c-3.481,0.078-6.971,0.117-10.461,0.133l-5.23-0.016l-5.433-0.07l-5.224-0.109
	l-5.332-0.147c-3.544-0.125-7.096-0.267-10.641-0.445c-14.185-0.711-28.339-1.897-42.43-3.568
	c-28.167-3.35-56.085-8.588-83.486-15.73c-54.812-14.271-107.563-36.153-156.34-64.766c-48.777-28.604-93.58-63.914-132.786-104.55
	c-39.238-40.61-72.869-86.546-99.607-136.111c-26.763-49.55-46.623-102.723-58.833-157.558
	C8.678,885.084,4.439,857.253,2.121,829.25c-1.155-13.998-1.851-28.042-2.054-42.095c-0.202-13.951,0.056-28.409,0.663-42.656
	c2.444-57.115,11.117-113.847,25.881-168.909c14.73-55.069,35.568-108.452,61.986-158.9c26.402-50.455,58.355-97.991,95.032-141.506
	C256.959,188.121,349.4,117.367,452.403,69.707c51.463-23.896,105.525-42.07,160.915-54.094
	c27.698-6.019,55.717-10.508,83.915-13.459c7.05-0.742,14.106-1.39,21.172-1.936c0.976-0.078,1.952-0.148,2.928-0.219v444.061
	c-1.265,0.016-2.545,0.031-3.856,0.055c-4.199,0.078-8.408,0.234-12.601,0.453c-16.792,0.889-33.538,2.889-50.072,5.995
	c-33.07,6.214-65.273,16.926-95.415,31.696c-30.158,14.754-58.263,33.561-83.361,55.701c-25.115,22.125-47.232,47.583-65.594,75.492
	c-18.369,27.894-32.983,58.255-43.265,89.989c-10.298,31.728-16.278,64.82-17.753,98.022c-0.188,4.154-0.305,8.307-0.359,12.453
	l-0.023,3.113v3.146l0.031,3.107l0.055,3.17c0.203,8.462,0.75,16.917,1.646,25.341c1.796,16.847,5.005,33.538,9.588,49.839
	c9.148,32.617,23.85,63.594,43.188,91.238c19.313,27.659,43.227,52.01,70.448,71.776c27.199,19.774,57.716,34.951,89.864,44.64
	c16.074,4.84,32.539,8.33,49.16,10.414c8.307,1.038,16.651,1.732,25.005,2.084c4.2,0.172,8.314,0.258,12.577,0.258l3.092-0.008
	l3.2-0.055c2.132-0.047,4.263-0.125,6.394-0.227c17.043-0.819,34.015-3.412,50.526-7.76c16.503-4.341,32.538-10.43,47.739-18.104
	c30.423-15.349,57.465-37.091,78.927-63.337c21.5-26.224,37.426-56.959,46.325-89.599c4.466-16.316,7.198-33.078,8.166-49.901
	c0.469-8.424,0.578-16.763,0.109-25.443c-0.461-8.595-1.49-17.167-3.061-25.638c-3.153-16.941-8.557-33.452-15.988-48.957
	c-7.432-15.504-16.894-29.985-28.042-43c-11.141-13.014-23.967-24.553-38.051-34.24c-14.083-9.695-29.432-17.533-45.521-23.241
	c-16.098-5.706-32.93-9.274-49.887-10.602c-4.255-0.328-8.462-0.53-12.756-0.585c-4.177-0.055-8.572,0.016-12.912,0.281
	c-8.682,0.53-17.34,1.756-25.833,3.684c-16.987,3.865-33.312,10.54-48.083,19.658c-14.778,9.095-28.026,20.603-39.081,33.897
	c-11.055,13.303-19.923,28.394-26.121,44.515s-9.704,33.249-10.368,50.424c-0.047,1.07-0.078,2.147-0.093,3.217l-0.023,1.67
	l-0.008,1.586l0.008,1.577l0.031,1.654c0.031,1.101,0.069,2.202,0.125,3.303c0.233,4.402,0.702,8.798,1.405,13.153
	c1.421,8.705,3.809,17.246,7.104,25.389c6.565,16.301,16.809,30.931,29.51,42.484c12.694,11.562,27.855,20.072,43.812,24.584
	c3.996,1.116,8.025,1.998,12.061,2.662c4.061,0.602,8.104,1.055,12.148,1.148c2.021,0.055,4.036,0.077,6.042,0.015
	c2.007-0.077,4.005-0.202,5.979-0.382c1.991-0.219,3.959-0.492,5.91-0.812c0.977-0.163,1.944-0.336,2.912-0.522
	c0.968-0.211,1.929-0.438,2.881-0.672c-0.952-0.233-1.913-0.483-2.85-0.733c-0.937-0.242-1.882-0.484-2.811-0.741
	c-1.865-0.508-3.7-1.07-5.52-1.672c-1.818-0.569-3.614-1.179-5.379-1.826c-1.772-0.641-3.521-1.296-5.238-2.015
	c-3.436-1.436-6.792-2.911-10.023-4.613c-3.248-1.64-6.378-3.436-9.392-5.348c-12.093-7.611-22.438-17.059-30.658-27.77
	c-8.251-10.68-14.372-22.608-18.166-35.061c-1.905-6.229-3.217-12.584-3.95-19.002c-0.367-3.208-0.586-6.433-0.664-9.664
	c-0.016-0.805-0.023-1.616-0.031-2.42l0.031-2.498l0.031-1.281l0.047-1.193c0.032-0.836,0.07-1.672,0.125-2.507
	c0.789-13.35,3.771-26.489,8.799-38.792c5.02-12.304,12.076-23.756,20.766-33.78c8.689-10.023,19.002-18.604,30.377-25.294
	c11.382-6.698,23.826-11.477,36.691-14.123c6.434-1.327,12.976-2.115,19.541-2.381c3.287-0.133,6.542-0.125,10-0.008
	c3.342,0.109,6.761,0.352,10.126,0.672c13.475,1.334,26.73,4.441,39.339,9.204c25.239,9.501,47.824,25.794,64.852,46.56
	c8.525,10.375,15.668,21.836,21.195,34.007c5.534,12.163,9.446,25.028,11.608,38.175c1.085,6.582,1.749,13.226,1.96,19.885
	c0.226,6.581,0.008,13.552-0.516,20.368c-1.062,13.661-3.56,27.167-7.424,40.251c-7.721,26.177-21.048,50.621-38.723,71.301
	c-17.658,20.696-39.604,37.652-64,49.355c-24.373,11.748-51.127,18.204-78.107,18.954c-13.537,0.352-27.543-0.53-41.174-2.499
	c-13.662-1.981-27.137-5.113-40.236-9.344c-26.215-8.455-50.932-21.359-72.846-37.949c-21.914-16.574-41.017-36.81-56.255-59.551
	c-15.247-22.741-26.614-47.98-33.461-74.352c-3.435-13.186-5.753-26.646-6.933-40.213c-0.593-6.785-0.897-13.592-0.921-20.408
	v-2.553l0.023-2.631l0.055-2.576l0.07-2.615c0.108-3.49,0.272-6.972,0.499-10.453c1.78-27.816,7.262-55.304,16.316-81.543
	c9.041-26.238,21.633-51.22,37.285-74.078c15.653-22.859,34.367-43.602,55.43-61.494c21.07-17.902,44.49-32.953,69.449-44.602
	c24.943-11.663,51.416-19.923,78.497-24.498c13.546-2.295,27.239-3.669,40.971-4.145c13.6-0.461,27.832-0.023,41.782,1.077
	c27.964,2.225,55.623,7.44,82.386,15.536c26.762,8.079,52.61,19.071,76.991,32.671c48.777,27.175,91.543,64.93,124.55,109.726
	c16.52,22.382,30.61,46.505,41.962,71.822c11.352,25.31,19.946,51.807,25.599,78.904
	C1106.921,851.203,1109.638,878.886,1109.458,906.584z"/>
</svg>
